<mxfile host="app.diagrams.net" modified="2024-01-20T19:15:31.168Z" agent="Mozilla/5.0 (Macintosh; Intel Mac OS X 10_15_7) AppleWebKit/537.36 (KHTML, like Gecko) Chrome/120.0.0.0 Safari/537.36" etag="YJMSNMhW5FRzYSwKZULJ" version="22.1.18" type="device">
  <diagram name="Page-1" id="n-V6ARbKUaXeH2jkB4bo">
    <mxGraphModel dx="1434" dy="2075" grid="1" gridSize="10" guides="1" tooltips="1" connect="1" arrows="1" fold="1" page="1" pageScale="1" pageWidth="1169" pageHeight="827" math="1" shadow="0">
      <root>
        <mxCell id="0" />
        <mxCell id="1" parent="0" />
        <mxCell id="ZZvYzfB-1jmkBrcRXvUw-2" value="" style="verticalLabelPosition=bottom;verticalAlign=top;html=1;shape=hexagon;perimeter=hexagonPerimeter2;arcSize=6;size=0.27;fillColor=#9dbcd3;strokeColor=#000000;strokeWidth=2;" vertex="1" parent="1">
          <mxGeometry x="150" y="490" width="100" height="60" as="geometry" />
        </mxCell>
        <mxCell id="ZZvYzfB-1jmkBrcRXvUw-3" value="" style="verticalLabelPosition=bottom;verticalAlign=top;html=1;shape=hexagon;perimeter=hexagonPerimeter2;arcSize=6;size=0.27;fillColor=#9dbcd3;strokeColor=#000000;strokeWidth=2;" vertex="1" parent="1">
          <mxGeometry x="275" y="660" width="100" height="60" as="geometry" />
        </mxCell>
        <mxCell id="ZZvYzfB-1jmkBrcRXvUw-4" value="" style="verticalLabelPosition=bottom;verticalAlign=top;html=1;shape=hexagon;perimeter=hexagonPerimeter2;arcSize=6;size=0.27;fillColor=#9dbcd3;strokeColor=#000000;strokeWidth=2;" vertex="1" parent="1">
          <mxGeometry x="30" y="660" width="100" height="60" as="geometry" />
        </mxCell>
        <mxCell id="ZZvYzfB-1jmkBrcRXvUw-31" style="edgeStyle=orthogonalEdgeStyle;rounded=0;orthogonalLoop=1;jettySize=auto;html=1;entryX=0.5;entryY=1;entryDx=0;entryDy=0;endSize=10;strokeWidth=2;" edge="1" parent="1" source="ZZvYzfB-1jmkBrcRXvUw-5" target="ZZvYzfB-1jmkBrcRXvUw-2">
          <mxGeometry relative="1" as="geometry" />
        </mxCell>
        <mxCell id="ZZvYzfB-1jmkBrcRXvUw-5" value="" style="verticalLabelPosition=bottom;verticalAlign=top;html=1;shape=mxgraph.flowchart.on-page_reference;fillColor=#fdd199;strokeColor=#d6b656;" vertex="1" parent="1">
          <mxGeometry x="170" y="660" width="60" height="60" as="geometry" />
        </mxCell>
        <mxCell id="ZZvYzfB-1jmkBrcRXvUw-6" value="" style="rounded=1;whiteSpace=wrap;html=1;glass=0;arcSize=6;strokeWidth=2;" vertex="1" parent="1">
          <mxGeometry x="260" width="770" height="640" as="geometry" />
        </mxCell>
        <mxCell id="ZZvYzfB-1jmkBrcRXvUw-8" value="" style="verticalLabelPosition=bottom;verticalAlign=top;html=1;shape=hexagon;perimeter=hexagonPerimeter2;arcSize=6;size=0.27;fontSize=20;fontStyle=1;fillColor=#9dbbd3;strokeColor=#000000;strokeWidth=2;" vertex="1" parent="1">
          <mxGeometry x="1050" y="90" width="100" height="60" as="geometry" />
        </mxCell>
        <mxCell id="ZZvYzfB-1jmkBrcRXvUw-9" value="" style="verticalLabelPosition=bottom;verticalAlign=top;html=1;shape=hexagon;perimeter=hexagonPerimeter2;arcSize=6;size=0.27;fillColor=#9cbcd3;strokeColor=#000000;strokeWidth=2;" vertex="1" parent="1">
          <mxGeometry x="1050" y="660" width="100" height="60" as="geometry" />
        </mxCell>
        <mxCell id="ZZvYzfB-1jmkBrcRXvUw-10" value="" style="verticalLabelPosition=bottom;verticalAlign=top;html=1;shape=hexagon;perimeter=hexagonPerimeter2;arcSize=6;size=0.27;fontSize=20;fontStyle=1;fillColor=#9dbcd3;strokeColor=#000000;strokeWidth=2;" vertex="1" parent="1">
          <mxGeometry x="150" y="90" width="100" height="60" as="geometry" />
        </mxCell>
        <mxCell id="ZZvYzfB-1jmkBrcRXvUw-16" value="" style="rounded=1;whiteSpace=wrap;html=1;arcSize=25;rotation=90;strokeColor=#ffffff;" vertex="1" parent="1">
          <mxGeometry x="133.97" y="247.47" width="457.57" height="167.5" as="geometry" />
        </mxCell>
        <mxCell id="ZZvYzfB-1jmkBrcRXvUw-18" value="" style="rounded=1;whiteSpace=wrap;html=1;glass=0;arcSize=6;strokeColor=#ffffff;" vertex="1" parent="1">
          <mxGeometry x="460" y="250" width="276" height="301" as="geometry" />
        </mxCell>
        <mxCell id="ZZvYzfB-1jmkBrcRXvUw-19" value="" style="rounded=1;whiteSpace=wrap;html=1;glass=0;arcSize=6;strokeColor=#ffffff;" vertex="1" parent="1">
          <mxGeometry x="749" y="166" width="260" height="385" as="geometry" />
        </mxCell>
        <mxCell id="ZZvYzfB-1jmkBrcRXvUw-22" value="" style="verticalLabelPosition=bottom;verticalAlign=top;html=1;shape=mxgraph.flowchart.on-page_reference;fontSize=20;fontStyle=1;fillColor=#ffd199;strokeColor=#d6b656;" vertex="1" parent="1">
          <mxGeometry x="649" y="261" width="60" height="60" as="geometry" />
        </mxCell>
        <mxCell id="ZZvYzfB-1jmkBrcRXvUw-23" value="" style="verticalLabelPosition=bottom;verticalAlign=top;html=1;shape=mxgraph.flowchart.on-page_reference;fontSize=20;fontStyle=1;fillColor=#ffd199;strokeColor=#d6b656;" vertex="1" parent="1">
          <mxGeometry x="934" y="261" width="60" height="60" as="geometry" />
        </mxCell>
        <mxCell id="ZZvYzfB-1jmkBrcRXvUw-26" value="$$ \times $$" style="text;html=1;align=center;verticalAlign=middle;resizable=0;points=[];autosize=1;strokeColor=none;fillColor=none;fontStyle=1;fontSize=20;" vertex="1" parent="1">
          <mxGeometry x="609" y="271" width="140" height="40" as="geometry" />
        </mxCell>
        <mxCell id="ZZvYzfB-1jmkBrcRXvUw-34" style="edgeStyle=orthogonalEdgeStyle;rounded=0;orthogonalLoop=1;jettySize=auto;html=1;entryX=0.5;entryY=0;entryDx=0;entryDy=0;exitX=0.5;exitY=1;exitDx=0;exitDy=0;exitPerimeter=0;endSize=10;strokeWidth=2;" edge="1" parent="1" source="ZZvYzfB-1jmkBrcRXvUw-23" target="ZZvYzfB-1jmkBrcRXvUw-9">
          <mxGeometry relative="1" as="geometry">
            <Array as="points">
              <mxPoint x="974" y="520" />
              <mxPoint x="1119" y="520" />
            </Array>
          </mxGeometry>
        </mxCell>
        <mxCell id="ZZvYzfB-1jmkBrcRXvUw-27" value="$$ \times $$" style="text;html=1;align=center;verticalAlign=middle;resizable=0;points=[];autosize=1;strokeColor=none;fillColor=none;fontStyle=1;fontSize=20;" vertex="1" parent="1">
          <mxGeometry x="894" y="271" width="140" height="40" as="geometry" />
        </mxCell>
        <mxCell id="ZZvYzfB-1jmkBrcRXvUw-28" value="$$ \bigoplus $$" style="text;html=1;align=center;verticalAlign=middle;resizable=0;points=[];autosize=1;strokeColor=none;fillColor=none;fontStyle=1;fontSize=18;" vertex="1" parent="1">
          <mxGeometry x="125" y="670" width="150" height="40" as="geometry" />
        </mxCell>
        <mxCell id="ZZvYzfB-1jmkBrcRXvUw-29" style="edgeStyle=orthogonalEdgeStyle;rounded=0;orthogonalLoop=1;jettySize=auto;html=1;entryX=0;entryY=0.5;entryDx=0;entryDy=0;entryPerimeter=0;endSize=10;strokeWidth=2;" edge="1" parent="1" source="ZZvYzfB-1jmkBrcRXvUw-4" target="ZZvYzfB-1jmkBrcRXvUw-5">
          <mxGeometry relative="1" as="geometry" />
        </mxCell>
        <mxCell id="ZZvYzfB-1jmkBrcRXvUw-30" style="edgeStyle=orthogonalEdgeStyle;rounded=0;orthogonalLoop=1;jettySize=auto;html=1;entryX=1;entryY=0.5;entryDx=0;entryDy=0;entryPerimeter=0;endSize=10;strokeWidth=2;exitX=0;exitY=0.5;exitDx=0;exitDy=0;" edge="1" parent="1" source="ZZvYzfB-1jmkBrcRXvUw-3" target="ZZvYzfB-1jmkBrcRXvUw-5">
          <mxGeometry relative="1" as="geometry">
            <mxPoint x="280" y="690" as="sourcePoint" />
            <mxPoint x="250" y="690" as="targetPoint" />
            <Array as="points">
              <mxPoint x="270" y="690" />
              <mxPoint x="270" y="690" />
            </Array>
          </mxGeometry>
        </mxCell>
        <mxCell id="ZZvYzfB-1jmkBrcRXvUw-32" style="edgeStyle=orthogonalEdgeStyle;rounded=0;orthogonalLoop=1;jettySize=auto;html=1;strokeWidth=2;entryX=0.5;entryY=1;entryDx=0;entryDy=0;endArrow=classic;endFill=1;entryPerimeter=0;" edge="1" parent="1" source="ZZvYzfB-1jmkBrcRXvUw-2" target="ZZvYzfB-1jmkBrcRXvUw-76">
          <mxGeometry relative="1" as="geometry">
            <Array as="points">
              <mxPoint x="864" y="520" />
            </Array>
          </mxGeometry>
        </mxCell>
        <mxCell id="ZZvYzfB-1jmkBrcRXvUw-36" value="$$\sigma$$" style="shape=parallelogram;perimeter=parallelogramPerimeter;whiteSpace=wrap;html=1;fixedSize=1;fontSize=20;fontStyle=1;fillColor=#e1d5e7;strokeColor=#9673a6;" vertex="1" parent="1">
          <mxGeometry x="349" y="271" width="80" height="40" as="geometry" />
        </mxCell>
        <mxCell id="ZZvYzfB-1jmkBrcRXvUw-37" value="$$\sigma$$" style="shape=parallelogram;perimeter=parallelogramPerimeter;whiteSpace=wrap;html=1;fixedSize=1;fontSize=20;fontStyle=1;fillColor=#e1d5e7;strokeColor=#9673a6;" vertex="1" parent="1">
          <mxGeometry x="532.75" y="270" width="80" height="40" as="geometry" />
        </mxCell>
        <mxCell id="ZZvYzfB-1jmkBrcRXvUw-47" style="edgeStyle=orthogonalEdgeStyle;rounded=0;orthogonalLoop=1;jettySize=auto;html=1;endSize=10;strokeWidth=2;" edge="1" parent="1" source="ZZvYzfB-1jmkBrcRXvUw-38" target="ZZvYzfB-1jmkBrcRXvUw-22">
          <mxGeometry relative="1" as="geometry" />
        </mxCell>
        <mxCell id="ZZvYzfB-1jmkBrcRXvUw-38" value="&lt;font style=&quot;font-size: 20px;&quot;&gt;$$tanh$$&lt;/font&gt;" style="shape=parallelogram;perimeter=parallelogramPerimeter;whiteSpace=wrap;html=1;fixedSize=1;fontStyle=1;fillColor=#e1d5e7;strokeColor=#9673a6;" vertex="1" parent="1">
          <mxGeometry x="639" y="436" width="80" height="40" as="geometry" />
        </mxCell>
        <mxCell id="ZZvYzfB-1jmkBrcRXvUw-39" value="$$\sigma$$" style="shape=parallelogram;perimeter=parallelogramPerimeter;whiteSpace=wrap;html=1;fixedSize=1;fontSize=20;fontStyle=1;fillColor=#e1d5e7;strokeColor=#9673a6;" vertex="1" parent="1">
          <mxGeometry x="824" y="270" width="80" height="40" as="geometry" />
        </mxCell>
        <mxCell id="ZZvYzfB-1jmkBrcRXvUw-50" style="edgeStyle=orthogonalEdgeStyle;rounded=0;orthogonalLoop=1;jettySize=auto;html=1;dashed=1;strokeWidth=2;endSize=10;fontSize=20;fontStyle=1" edge="1" parent="1" source="ZZvYzfB-1jmkBrcRXvUw-40" target="ZZvYzfB-1jmkBrcRXvUw-23">
          <mxGeometry relative="1" as="geometry" />
        </mxCell>
        <mxCell id="ZZvYzfB-1jmkBrcRXvUw-40" value="$$tanh$$" style="shape=parallelogram;perimeter=parallelogramPerimeter;whiteSpace=wrap;html=1;fixedSize=1;fontSize=20;fontStyle=1;fillColor=#e1d5e7;strokeColor=#9673a6;" vertex="1" parent="1">
          <mxGeometry x="924" y="186" width="80" height="40" as="geometry" />
        </mxCell>
        <mxCell id="ZZvYzfB-1jmkBrcRXvUw-42" style="edgeStyle=orthogonalEdgeStyle;rounded=0;orthogonalLoop=1;jettySize=auto;html=1;strokeWidth=2;entryX=0.5;entryY=1;entryDx=0;entryDy=0;exitX=1;exitY=0.5;exitDx=0;exitDy=0;endArrow=none;endFill=0;" edge="1" parent="1" source="ZZvYzfB-1jmkBrcRXvUw-2" target="ZZvYzfB-1jmkBrcRXvUw-38">
          <mxGeometry relative="1" as="geometry">
            <mxPoint x="209" y="530" as="sourcePoint" />
            <mxPoint x="759" y="490" as="targetPoint" />
            <Array as="points">
              <mxPoint x="679" y="520" />
            </Array>
          </mxGeometry>
        </mxCell>
        <mxCell id="ZZvYzfB-1jmkBrcRXvUw-43" style="edgeStyle=orthogonalEdgeStyle;rounded=0;orthogonalLoop=1;jettySize=auto;html=1;strokeWidth=2;entryX=0.5;entryY=1;entryDx=0;entryDy=0;exitX=1;exitY=0.5;exitDx=0;exitDy=0;endArrow=classic;endFill=1;entryPerimeter=0;" edge="1" parent="1" source="ZZvYzfB-1jmkBrcRXvUw-2" target="ZZvYzfB-1jmkBrcRXvUw-74">
          <mxGeometry relative="1" as="geometry">
            <mxPoint x="209" y="530" as="sourcePoint" />
            <mxPoint x="609" y="490" as="targetPoint" />
            <Array as="points">
              <mxPoint x="573" y="520" />
              <mxPoint x="573" y="430" />
            </Array>
          </mxGeometry>
        </mxCell>
        <mxCell id="ZZvYzfB-1jmkBrcRXvUw-44" style="edgeStyle=orthogonalEdgeStyle;rounded=0;orthogonalLoop=1;jettySize=auto;html=1;strokeWidth=2;entryX=0.5;entryY=1;entryDx=0;entryDy=0;exitX=1;exitY=0.5;exitDx=0;exitDy=0;endArrow=classic;endFill=1;entryPerimeter=0;" edge="1" parent="1" source="ZZvYzfB-1jmkBrcRXvUw-2" target="ZZvYzfB-1jmkBrcRXvUw-64">
          <mxGeometry relative="1" as="geometry">
            <mxPoint x="209" y="530" as="sourcePoint" />
            <mxPoint x="469" y="490" as="targetPoint" />
            <Array as="points">
              <mxPoint x="389" y="520" />
            </Array>
          </mxGeometry>
        </mxCell>
        <mxCell id="ZZvYzfB-1jmkBrcRXvUw-45" style="edgeStyle=orthogonalEdgeStyle;rounded=0;orthogonalLoop=1;jettySize=auto;html=1;strokeWidth=2;entryX=0.5;entryY=1;entryDx=0;entryDy=0;exitX=0.5;exitY=0;exitDx=0;exitDy=0;endArrow=classic;endFill=1;entryPerimeter=0;endSize=10;fontSize=20;fontStyle=1" edge="1" parent="1" source="ZZvYzfB-1jmkBrcRXvUw-36" target="ZZvYzfB-1jmkBrcRXvUw-20">
          <mxGeometry relative="1" as="geometry">
            <mxPoint x="274" y="530" as="sourcePoint" />
            <mxPoint x="399" y="490" as="targetPoint" />
            <Array as="points">
              <mxPoint x="389" y="150" />
            </Array>
          </mxGeometry>
        </mxCell>
        <mxCell id="ZZvYzfB-1jmkBrcRXvUw-46" style="edgeStyle=orthogonalEdgeStyle;rounded=0;orthogonalLoop=1;jettySize=auto;html=1;entryX=0;entryY=0.5;entryDx=0;entryDy=0;entryPerimeter=0;endSize=10;strokeWidth=2;fontSize=20;fontStyle=1" edge="1" parent="1" source="ZZvYzfB-1jmkBrcRXvUw-37" target="ZZvYzfB-1jmkBrcRXvUw-22">
          <mxGeometry relative="1" as="geometry">
            <Array as="points">
              <mxPoint x="599" y="291" />
              <mxPoint x="599" y="291" />
            </Array>
          </mxGeometry>
        </mxCell>
        <mxCell id="ZZvYzfB-1jmkBrcRXvUw-49" style="edgeStyle=orthogonalEdgeStyle;rounded=0;orthogonalLoop=1;jettySize=auto;html=1;entryX=0;entryY=0.5;entryDx=0;entryDy=0;entryPerimeter=0;endSize=10;strokeWidth=2;fontSize=20;fontStyle=1" edge="1" parent="1" source="ZZvYzfB-1jmkBrcRXvUw-39" target="ZZvYzfB-1jmkBrcRXvUw-23">
          <mxGeometry relative="1" as="geometry">
            <Array as="points">
              <mxPoint x="894" y="291" />
              <mxPoint x="894" y="291" />
            </Array>
          </mxGeometry>
        </mxCell>
        <mxCell id="ZZvYzfB-1jmkBrcRXvUw-52" value="&lt;font size=&quot;1&quot; style=&quot;&quot;&gt;&lt;b style=&quot;font-size: 20px;&quot;&gt;$$i_t$$&lt;/b&gt;&lt;/font&gt;" style="text;html=1;strokeColor=none;fillColor=none;align=center;verticalAlign=middle;whiteSpace=wrap;rounded=0;" vertex="1" parent="1">
          <mxGeometry x="170" y="505" width="60" height="30" as="geometry" />
        </mxCell>
        <mxCell id="ZZvYzfB-1jmkBrcRXvUw-53" value="&lt;font size=&quot;1&quot; style=&quot;&quot;&gt;&lt;b style=&quot;font-size: 20px;&quot;&gt;$$x_t$$&lt;/b&gt;&lt;/font&gt;" style="text;html=1;strokeColor=none;fillColor=none;align=center;verticalAlign=middle;whiteSpace=wrap;rounded=0;" vertex="1" parent="1">
          <mxGeometry x="295" y="675" width="60" height="30" as="geometry" />
        </mxCell>
        <mxCell id="ZZvYzfB-1jmkBrcRXvUw-54" value="&lt;font size=&quot;1&quot; style=&quot;&quot;&gt;&lt;b style=&quot;font-size: 20px;&quot;&gt;$$h_{t-1}$$&lt;/b&gt;&lt;/font&gt;" style="text;html=1;strokeColor=none;fillColor=none;align=center;verticalAlign=middle;whiteSpace=wrap;rounded=0;" vertex="1" parent="1">
          <mxGeometry x="50" y="675" width="60" height="30" as="geometry" />
        </mxCell>
        <mxCell id="ZZvYzfB-1jmkBrcRXvUw-55" value="&lt;font style=&quot;font-size: 20px;&quot;&gt;&lt;span style=&quot;font-size: 20px;&quot;&gt;$$C_{t-1}$$&lt;/span&gt;&lt;/font&gt;" style="text;html=1;strokeColor=none;fillColor=none;align=center;verticalAlign=middle;whiteSpace=wrap;rounded=0;fontSize=20;fontStyle=1" vertex="1" parent="1">
          <mxGeometry x="170" y="105" width="60" height="30" as="geometry" />
        </mxCell>
        <mxCell id="ZZvYzfB-1jmkBrcRXvUw-56" value="&lt;font style=&quot;font-size: 20px;&quot;&gt;&lt;span style=&quot;font-size: 20px;&quot;&gt;$$C_{t}$$&lt;/span&gt;&lt;/font&gt;" style="text;html=1;strokeColor=none;fillColor=none;align=center;verticalAlign=middle;whiteSpace=wrap;rounded=0;fontSize=20;fontStyle=1" vertex="1" parent="1">
          <mxGeometry x="1070" y="105" width="60" height="30" as="geometry" />
        </mxCell>
        <mxCell id="ZZvYzfB-1jmkBrcRXvUw-57" value="&lt;font size=&quot;1&quot; style=&quot;&quot;&gt;&lt;b style=&quot;font-size: 20px;&quot;&gt;$$h_{t}$$&lt;/b&gt;&lt;/font&gt;" style="text;html=1;strokeColor=none;fillColor=none;align=center;verticalAlign=middle;whiteSpace=wrap;rounded=0;" vertex="1" parent="1">
          <mxGeometry x="1070" y="675" width="60" height="30" as="geometry" />
        </mxCell>
        <mxCell id="ZZvYzfB-1jmkBrcRXvUw-58" value="&lt;font size=&quot;1&quot; style=&quot;&quot;&gt;&lt;b style=&quot;font-size: 20px;&quot;&gt;Forget Gate&lt;/b&gt;&lt;/font&gt;" style="text;html=1;strokeColor=none;fillColor=none;align=center;verticalAlign=middle;whiteSpace=wrap;rounded=0;" vertex="1" parent="1">
          <mxGeometry x="332.75" y="576" width="60" height="30" as="geometry" />
        </mxCell>
        <mxCell id="ZZvYzfB-1jmkBrcRXvUw-59" value="&lt;font size=&quot;1&quot; style=&quot;&quot;&gt;&lt;b style=&quot;font-size: 20px;&quot;&gt;Input Gate&lt;/b&gt;&lt;/font&gt;" style="text;html=1;strokeColor=none;fillColor=none;align=center;verticalAlign=middle;whiteSpace=wrap;rounded=0;" vertex="1" parent="1">
          <mxGeometry x="569" y="576" width="60" height="30" as="geometry" />
        </mxCell>
        <mxCell id="ZZvYzfB-1jmkBrcRXvUw-60" value="&lt;font size=&quot;1&quot; style=&quot;&quot;&gt;&lt;b style=&quot;font-size: 20px;&quot;&gt;Output Gate&lt;/b&gt;&lt;/font&gt;" style="text;html=1;strokeColor=none;fillColor=none;align=center;verticalAlign=middle;whiteSpace=wrap;rounded=0;" vertex="1" parent="1">
          <mxGeometry x="849" y="576" width="60" height="30" as="geometry" />
        </mxCell>
        <mxCell id="ZZvYzfB-1jmkBrcRXvUw-68" value="&lt;span style=&quot;border-color: var(--border-color); font-size: 18px;&quot;&gt;&lt;font style=&quot;border-color: var(--border-color); font-size: 18px;&quot;&gt;$$ W_f; b_f$$&lt;/font&gt;&lt;/span&gt;" style="rhombus;whiteSpace=wrap;html=1;fontSize=18;fontStyle=1;fillColor=#f8cecc;strokeColor=#b85450;" vertex="1" parent="1">
          <mxGeometry x="289" y="430" width="80" height="80" as="geometry" />
        </mxCell>
        <mxCell id="ZZvYzfB-1jmkBrcRXvUw-70" style="edgeStyle=orthogonalEdgeStyle;rounded=0;orthogonalLoop=1;jettySize=auto;html=1;endSize=10;strokeWidth=2;endArrow=none;endFill=0;fontSize=20;fontStyle=1" edge="1" parent="1" source="ZZvYzfB-1jmkBrcRXvUw-64" target="ZZvYzfB-1jmkBrcRXvUw-36">
          <mxGeometry relative="1" as="geometry" />
        </mxCell>
        <mxCell id="ZZvYzfB-1jmkBrcRXvUw-64" value="" style="verticalLabelPosition=bottom;verticalAlign=top;html=1;shape=mxgraph.flowchart.on-page_reference;fontSize=20;fontStyle=1;fillColor=#fed199;strokeColor=#d6b656;" vertex="1" parent="1">
          <mxGeometry x="359" y="370" width="60" height="60" as="geometry" />
        </mxCell>
        <mxCell id="ZZvYzfB-1jmkBrcRXvUw-85" value="" style="edgeStyle=orthogonalEdgeStyle;rounded=0;orthogonalLoop=1;jettySize=auto;html=1;strokeWidth=2;exitX=0.5;exitY=0;exitDx=0;exitDy=0;exitPerimeter=0;" edge="1" parent="1" source="ZZvYzfB-1jmkBrcRXvUw-64" target="ZZvYzfB-1jmkBrcRXvUw-36">
          <mxGeometry relative="1" as="geometry" />
        </mxCell>
        <mxCell id="ZZvYzfB-1jmkBrcRXvUw-65" value="$$+$$" style="text;html=1;align=center;verticalAlign=middle;resizable=0;points=[];autosize=1;strokeColor=none;fillColor=none;fontStyle=1;fontSize=20;" vertex="1" parent="1">
          <mxGeometry x="349" y="380" width="80" height="40" as="geometry" />
        </mxCell>
        <mxCell id="ZZvYzfB-1jmkBrcRXvUw-69" style="edgeStyle=orthogonalEdgeStyle;rounded=0;orthogonalLoop=1;jettySize=auto;html=1;entryX=0;entryY=0.5;entryDx=0;entryDy=0;entryPerimeter=0;strokeWidth=2;endSize=6;startArrow=none;startFill=0;endArrow=classic;endFill=1;fontSize=20;fontStyle=1" edge="1" parent="1" source="ZZvYzfB-1jmkBrcRXvUw-68" target="ZZvYzfB-1jmkBrcRXvUw-64">
          <mxGeometry relative="1" as="geometry">
            <Array as="points">
              <mxPoint x="329" y="400" />
            </Array>
          </mxGeometry>
        </mxCell>
        <mxCell id="ZZvYzfB-1jmkBrcRXvUw-72" value="&lt;span style=&quot;border-color: var(--border-color); font-size: 18px;&quot;&gt;&lt;font style=&quot;border-color: var(--border-color); font-size: 18px;&quot;&gt;$$ W_i; b_i$$&lt;/font&gt;&lt;/span&gt;" style="rhombus;whiteSpace=wrap;html=1;fontSize=18;fontStyle=1;fillColor=#f8cecc;strokeColor=#b85450;" vertex="1" parent="1">
          <mxGeometry x="469" y="430" width="80" height="80" as="geometry" />
        </mxCell>
        <mxCell id="ZZvYzfB-1jmkBrcRXvUw-73" value="&lt;span style=&quot;border-color: var(--border-color); font-size: 18px;&quot;&gt;&lt;font style=&quot;border-color: var(--border-color); font-size: 18px;&quot;&gt;$$ W_o; b_o$$&lt;/font&gt;&lt;/span&gt;" style="rhombus;whiteSpace=wrap;html=1;fontSize=18;fontStyle=1;fillColor=#f8cecc;strokeColor=#b85450;" vertex="1" parent="1">
          <mxGeometry x="759" y="430" width="80" height="80" as="geometry" />
        </mxCell>
        <mxCell id="ZZvYzfB-1jmkBrcRXvUw-82" style="edgeStyle=orthogonalEdgeStyle;rounded=0;orthogonalLoop=1;jettySize=auto;html=1;entryX=0.5;entryY=1;entryDx=0;entryDy=0;endSize=6;strokeWidth=2;endArrow=classic;endFill=1;fontSize=20;fontStyle=1" edge="1" parent="1" source="ZZvYzfB-1jmkBrcRXvUw-74" target="ZZvYzfB-1jmkBrcRXvUw-37">
          <mxGeometry relative="1" as="geometry" />
        </mxCell>
        <mxCell id="ZZvYzfB-1jmkBrcRXvUw-74" value="" style="verticalLabelPosition=bottom;verticalAlign=top;html=1;shape=mxgraph.flowchart.on-page_reference;fontSize=20;fontStyle=1;fillColor=#fed199;strokeColor=#d6b656;" vertex="1" parent="1">
          <mxGeometry x="542.75" y="370" width="60" height="60" as="geometry" />
        </mxCell>
        <mxCell id="ZZvYzfB-1jmkBrcRXvUw-75" value="$$+$$" style="text;html=1;align=center;verticalAlign=middle;resizable=0;points=[];autosize=1;strokeColor=none;fillColor=none;fontStyle=1;fontSize=20;" vertex="1" parent="1">
          <mxGeometry x="532.75" y="380" width="80" height="40" as="geometry" />
        </mxCell>
        <mxCell id="ZZvYzfB-1jmkBrcRXvUw-13" value="" style="rounded=1;whiteSpace=wrap;html=1;arcSize=10;fontSize=20;fontStyle=1;strokeColor=#ffffff;" vertex="1" parent="1">
          <mxGeometry x="261" y="90" width="766" height="60" as="geometry" />
        </mxCell>
        <mxCell id="ZZvYzfB-1jmkBrcRXvUw-80" style="edgeStyle=orthogonalEdgeStyle;rounded=0;orthogonalLoop=1;jettySize=auto;html=1;endSize=6;strokeWidth=2;endArrow=classic;endFill=1;fontSize=20;fontStyle=1" edge="1" parent="1" source="ZZvYzfB-1jmkBrcRXvUw-76" target="ZZvYzfB-1jmkBrcRXvUw-39">
          <mxGeometry relative="1" as="geometry" />
        </mxCell>
        <mxCell id="ZZvYzfB-1jmkBrcRXvUw-76" value="" style="verticalLabelPosition=bottom;verticalAlign=top;html=1;shape=mxgraph.flowchart.on-page_reference;fontSize=20;fontStyle=1;fillColor=#ffd199;strokeColor=#d6b656;" vertex="1" parent="1">
          <mxGeometry x="834" y="370" width="60" height="60" as="geometry" />
        </mxCell>
        <mxCell id="ZZvYzfB-1jmkBrcRXvUw-77" value="$$+$$" style="text;html=1;align=center;verticalAlign=middle;resizable=0;points=[];autosize=1;strokeColor=none;fillColor=none;fontStyle=1;fontSize=20;" vertex="1" parent="1">
          <mxGeometry x="824" y="380" width="80" height="40" as="geometry" />
        </mxCell>
        <mxCell id="ZZvYzfB-1jmkBrcRXvUw-78" style="edgeStyle=orthogonalEdgeStyle;rounded=0;orthogonalLoop=1;jettySize=auto;html=1;entryX=0;entryY=0.5;entryDx=0;entryDy=0;entryPerimeter=0;strokeWidth=2;fontSize=20;fontStyle=1" edge="1" parent="1" source="ZZvYzfB-1jmkBrcRXvUw-73" target="ZZvYzfB-1jmkBrcRXvUw-76">
          <mxGeometry relative="1" as="geometry">
            <Array as="points">
              <mxPoint x="799" y="400" />
            </Array>
          </mxGeometry>
        </mxCell>
        <mxCell id="ZZvYzfB-1jmkBrcRXvUw-81" style="edgeStyle=orthogonalEdgeStyle;rounded=0;orthogonalLoop=1;jettySize=auto;html=1;entryX=0;entryY=0.5;entryDx=0;entryDy=0;entryPerimeter=0;endSize=6;strokeWidth=2;fontSize=20;fontStyle=1" edge="1" parent="1" source="ZZvYzfB-1jmkBrcRXvUw-72" target="ZZvYzfB-1jmkBrcRXvUw-74">
          <mxGeometry relative="1" as="geometry" />
        </mxCell>
        <mxCell id="ZZvYzfB-1jmkBrcRXvUw-83" style="edgeStyle=orthogonalEdgeStyle;rounded=0;orthogonalLoop=1;jettySize=auto;html=1;entryX=0.5;entryY=1;entryDx=0;entryDy=0;entryPerimeter=0;strokeWidth=2;endSize=10;fontSize=20;fontStyle=1" edge="1" parent="1" source="ZZvYzfB-1jmkBrcRXvUw-22" target="ZZvYzfB-1jmkBrcRXvUw-48">
          <mxGeometry relative="1" as="geometry" />
        </mxCell>
        <mxCell id="ZZvYzfB-1jmkBrcRXvUw-33" style="edgeStyle=orthogonalEdgeStyle;rounded=0;orthogonalLoop=1;jettySize=auto;html=1;strokeWidth=2;endSize=10;dashed=1;fontSize=20;fontStyle=1" edge="1" parent="1" source="ZZvYzfB-1jmkBrcRXvUw-10" target="ZZvYzfB-1jmkBrcRXvUw-8">
          <mxGeometry relative="1" as="geometry">
            <Array as="points">
              <mxPoint x="859" y="120" />
              <mxPoint x="859" y="120" />
            </Array>
          </mxGeometry>
        </mxCell>
        <mxCell id="ZZvYzfB-1jmkBrcRXvUw-84" value="&lt;font size=&quot;1&quot; style=&quot;&quot;&gt;&lt;b style=&quot;font-size: 20px;&quot;&gt;Cell State&lt;/b&gt;&lt;/font&gt;" style="text;html=1;strokeColor=none;fillColor=none;align=center;verticalAlign=middle;whiteSpace=wrap;rounded=0;" vertex="1" parent="1">
          <mxGeometry x="580" y="10" width="130" height="30" as="geometry" />
        </mxCell>
        <mxCell id="ZZvYzfB-1jmkBrcRXvUw-41" style="edgeStyle=orthogonalEdgeStyle;rounded=0;orthogonalLoop=1;jettySize=auto;html=1;entryX=0.5;entryY=0;entryDx=0;entryDy=0;endSize=10;strokeWidth=2;dashed=1;fontSize=20;fontStyle=1" edge="1" parent="1" source="ZZvYzfB-1jmkBrcRXvUw-10" target="ZZvYzfB-1jmkBrcRXvUw-40">
          <mxGeometry relative="1" as="geometry" />
        </mxCell>
        <mxCell id="ZZvYzfB-1jmkBrcRXvUw-48" value="" style="verticalLabelPosition=bottom;verticalAlign=top;html=1;shape=mxgraph.flowchart.on-page_reference;fontSize=20;fontStyle=1;fillColor=#ffd199;strokeColor=#d6b656;" vertex="1" parent="1">
          <mxGeometry x="649" y="90" width="60" height="60" as="geometry" />
        </mxCell>
        <mxCell id="ZZvYzfB-1jmkBrcRXvUw-24" value="$$+$$" style="text;html=1;align=center;verticalAlign=middle;resizable=0;points=[];autosize=1;strokeColor=none;fillColor=none;fontStyle=1;fontSize=20;" vertex="1" parent="1">
          <mxGeometry x="639" y="100" width="80" height="40" as="geometry" />
        </mxCell>
        <mxCell id="ZZvYzfB-1jmkBrcRXvUw-20" value="" style="verticalLabelPosition=bottom;verticalAlign=top;html=1;shape=mxgraph.flowchart.on-page_reference;fontSize=20;fontStyle=1;fillColor=#ffd199;strokeColor=#d6b656;" vertex="1" parent="1">
          <mxGeometry x="359" y="90" width="60" height="60" as="geometry" />
        </mxCell>
        <mxCell id="ZZvYzfB-1jmkBrcRXvUw-25" value="$$ \times $$" style="text;html=1;align=center;verticalAlign=middle;resizable=0;points=[];autosize=1;strokeColor=none;fillColor=none;fontStyle=1;fontSize=20;" vertex="1" parent="1">
          <mxGeometry x="319" y="100" width="140" height="40" as="geometry" />
        </mxCell>
        <mxCell id="ZZvYzfB-1jmkBrcRXvUw-90" value="&lt;span style=&quot;border-color: var(--border-color); font-size: 18px;&quot;&gt;&lt;font style=&quot;border-color: var(--border-color); font-size: 18px;&quot;&gt;$$ W_C; b_C$$&lt;/font&gt;&lt;/span&gt;" style="rhombus;whiteSpace=wrap;html=1;fontSize=18;fontStyle=1;fillColor=#f8cecc;strokeColor=#b85450;" vertex="1" parent="1">
          <mxGeometry x="469" y="10" width="80" height="80" as="geometry" />
        </mxCell>
        <mxCell id="ZZvYzfB-1jmkBrcRXvUw-91" style="edgeStyle=orthogonalEdgeStyle;rounded=0;orthogonalLoop=1;jettySize=auto;html=1;entryX=0.5;entryY=0;entryDx=0;entryDy=0;entryPerimeter=0;strokeWidth=2;endSize=6;" edge="1" parent="1" source="ZZvYzfB-1jmkBrcRXvUw-90" target="ZZvYzfB-1jmkBrcRXvUw-48">
          <mxGeometry relative="1" as="geometry" />
        </mxCell>
      </root>
    </mxGraphModel>
  </diagram>
</mxfile>
